<svg xmlns="http://www.w3.org/2000/svg" viewBox="0 -0.000044112537580076605 95.33999633789062 96.11172485351562"><g><g><path d="M48 64.05a16 16 0 1 1 13.86-24h33.48A48.09 48.09 0 0 0 64 2.79l-.57-.19-.92-.3-1-.32-.93-.26-1.09-.28-.92-.22L57.39 1l-.92-.2L55.3.61l-.91-.13c-.39-.06-.83-.1-1.25-.15l-.85-.09c-.47 0-.95-.07-1.42-.09H16v16H0v32c0 .77 0 1.54.06 2.3 0 .25 0 .49.05.74 0 .52.06 1 .11 1.54l.09.86.18 1.4c.05.29.09.58.13.87.08.47.17.94.26 1.41L1 58c.11.54.24 1.07.37 1.59.05.19.09.39.14.57.18.71.38 1.42.59 2.11.06.18.13.36.18.55.14.42.27.84.42 1.26a48 48 0 0 0 92.6-8H61.86A16 16 0 0 1 48 64.05z" fill="#7866ff"></path><g opacity=".2" fill="#42ff9e"><path d="M48.12 0v16h16V2.73a47.87 47.87 0 0 0-16-2.73zM32.12 16h16v16h-16zM16.12 32h16v16h-16zM2.85 64h13.27V48h-16a47.87 47.87 0 0 0 2.73 16z"></path></g><g opacity=".6" fill="#42ff9e"><path d="M32 .05h16v16H32zM16 16.05h16v16H16zM0 32.05h16v16H0z"></path></g><g opacity=".8" fill="#42ff9e"><path d="M16 .05h16v16H16zM0 16.05h16v16H0z"></path></g><path fill="#42ff9e" d="M0 .05h16v16H0z"></path></g></g></svg>